<svg width="611" height="387" viewBox="0 0 611 387" fill="none" xmlns="http://www.w3.org/2000/svg">
<path d="M12.9398 254.956C16.8025 262.291 25.0007 265.44 25.0007 265.44C25.0007 265.44 26.936 256.696 23.0733 249.361C19.2105 242.025 11.0124 238.877 11.0124 238.877C11.0124 238.877 9.07706 247.621 12.9398 254.956Z" fill="#26EF15"/>
<path d="M15.5948 252.542C22.5686 256.839 25.2545 265.372 25.2545 265.372C25.2545 265.372 16.6335 266.94 9.65966 262.644C2.68583 258.348 0 249.814 0 249.814C0 249.814 8.62096 248.246 15.5948 252.542Z" fill="#26EF15"/>
<path d="M380.678 133.262C380.678 191.912 346.627 212.391 304.624 212.391C262.62 212.391 228.569 191.912 228.569 133.262C228.569 74.6121 304.624 1.52588e-05 304.624 1.52588e-05C304.624 1.52588e-05 380.678 74.6121 380.678 133.262Z" fill="#26EF15"/>
<path d="M301.853 203.419L302.632 154.334L335.048 93.6092L302.754 146.634L303.104 124.564L325.445 80.6297L303.197 118.723L303.827 79.0282L327.75 44.0513L303.926 72.7861L304.319 0L301.846 96.3559L302.049 92.3812L277.726 54.2583L301.659 100.011L299.393 144.344L299.326 143.167L271.285 103.049L299.241 147.324L298.957 152.868L298.906 152.952L298.93 153.407L293.18 265.882H300.862L301.784 207.786L329.67 163.619L301.853 203.419Z" fill="#3F3D56"/>
<path d="M593.324 133.262C593.324 191.912 559.273 212.391 517.27 212.391C475.266 212.391 441.216 191.912 441.216 133.262C441.216 74.6121 517.27 1.52588e-05 517.27 1.52588e-05C517.27 1.52588e-05 593.324 74.6121 593.324 133.262Z" fill="#26EF15"/>
<path d="M514.499 203.419L515.278 154.334L547.695 93.6092L515.4 146.634L515.75 124.564L538.092 80.6297L515.843 118.723L516.473 79.0282L540.397 44.0513L516.572 72.7861L516.965 0L514.493 96.3559L514.696 92.3812L490.373 54.2583L514.306 100.011L512.04 144.344L511.972 143.167L483.932 103.049L511.887 147.324L511.604 152.868L511.553 152.952L511.576 153.407L505.826 265.882H513.508L514.43 207.786L542.317 163.619L514.499 203.419Z" fill="#3F3D56"/>
<path d="M58.4996 180.329C74.5672 180.329 87.5926 166.992 87.5926 150.539C87.5926 134.086 74.5672 120.749 58.4996 120.749C42.432 120.749 29.4066 134.086 29.4066 150.539C29.4066 166.992 42.432 180.329 58.4996 180.329Z" fill="#F35B06"/>
<path d="M21.5876 206.572L17.317 199.284L57.1767 164.3H159.674V174.503L122.661 215.318L79.954 224.064L21.5876 206.572Z" fill="#F35B06"/>
<path d="M177.318 184.83V162.023H163.898V169.215L159.674 164.3L125.508 199.284L119.814 205.114L112.696 234.268L125.508 266.337H190.992V200.741L177.318 184.83Z" fill="#3F3D56"/>
<path d="M125.508 199.284H17.3169V266.337H125.508V199.284Z" fill="#F2F2F2"/>
<path d="M110.561 220.42H87.7836V240.828H110.561V220.42Z" fill="#3F3D56"/>
<path d="M78.5304 219.691H58.6004V266.337H78.5304V219.691Z" fill="#CCCCCC"/>
<path d="M35.8231 226.98V219.692H27.2819V226.98H35.1113H35.8231Z" fill="#3F3D56"/>
<path d="M35.1113 232.81H27.2819V240.099H35.8231V232.81H35.1113Z" fill="#3F3D56"/>
<path d="M50.059 219.691H41.5176V226.98H50.059V219.691Z" fill="#3F3D56"/>
<path d="M50.059 232.81H41.5176V240.099H50.059V232.81Z" fill="#3F3D56"/>
<path d="M156.115 227.708V220.42H147.573V227.708H155.403H156.115Z" fill="#CCCCCC"/>
<path d="M155.403 233.539H147.573V240.828H156.115V233.539H155.403Z" fill="#3F3D56"/>
<path d="M170.351 220.42H161.809V227.709H170.351V220.42Z" fill="#CCCCCC"/>
<path d="M170.351 233.539H161.809V240.828H170.351V233.539Z" fill="#CCCCCC"/>
<path d="M227.008 206.532L222.737 199.244L262.597 164.26H365.094V174.463L328.081 215.279L285.374 224.024L227.008 206.532Z" fill="#F35B06"/>
<path d="M382.738 184.79V161.983H369.319V169.175L365.094 164.26L330.929 199.244L325.234 205.074L318.116 234.228L330.929 266.297H396.412V200.701L382.738 184.79Z" fill="#3F3D56"/>
<path d="M330.929 199.244H222.737V266.297H330.929V199.244Z" fill="#F2F2F2"/>
<path d="M315.981 220.38H293.204V240.788H315.981V220.38Z" fill="#3F3D56"/>
<path d="M283.951 219.651H264.021V266.297H283.951V219.651Z" fill="#CCCCCC"/>
<path d="M241.244 226.94V219.651H232.702V226.94H240.532H241.244Z" fill="#3F3D56"/>
<path d="M240.532 232.77H232.702V240.059H241.244V232.77H240.532Z" fill="#3F3D56"/>
<path d="M255.479 219.651H246.938V226.94H255.479V219.651Z" fill="#3F3D56"/>
<path d="M255.479 232.771H246.938V240.059H255.479V232.771Z" fill="#3F3D56"/>
<path d="M361.535 227.668V220.38H352.994V227.668H360.823H361.535Z" fill="#CCCCCC"/>
<path d="M360.823 233.499H352.994V240.788H361.535V233.499H360.823Z" fill="#CCCCCC"/>
<path d="M375.771 220.38H367.23V227.669H375.771V220.38Z" fill="#CCCCCC"/>
<path d="M375.771 233.499H367.23V240.788H375.771V233.499Z" fill="#CCCCCC"/>
<path d="M426.263 206.532L421.993 199.244L461.853 164.26H564.35V174.463L527.337 215.279L484.63 224.024L426.263 206.532Z" fill="#F35B06"/>
<path d="M581.994 184.79V161.983H568.574V169.175L564.35 164.26L530.184 199.244L524.49 205.074L517.372 234.228L530.184 266.297H595.668V200.701L581.994 184.79Z" fill="#3F3D56"/>
<path d="M530.184 199.244H421.993V266.297H530.184V199.244Z" fill="#F2F2F2"/>
<path d="M515.237 220.38H492.459V240.788H515.237V220.38Z" fill="#3F3D56"/>
<path d="M483.206 219.651H463.276V266.297H483.206V219.651Z" fill="#CCCCCC"/>
<path d="M440.499 226.94V219.651H431.958V226.94H439.787H440.499Z" fill="#3F3D56"/>
<path d="M439.787 232.77H431.958V240.059H440.499V232.77H439.787Z" fill="#3F3D56"/>
<path d="M454.735 219.651H446.193V226.94H454.735V219.651Z" fill="#3F3D56"/>
<path d="M454.735 232.771H446.193V240.059H454.735V232.771Z" fill="#3F3D56"/>
<path d="M560.791 227.668V220.38H552.25V227.668H560.079H560.791Z" fill="#CCCCCC"/>
<path d="M560.079 233.499H552.25V240.788H560.791V233.499H560.079Z" fill="#CCCCCC"/>
<path d="M575.027 220.38H566.485V227.669H575.027V220.38Z" fill="#CCCCCC"/>
<path d="M575.027 233.499H566.485V240.788H575.027V233.499Z" fill="#CCCCCC"/>
<path d="M407.661 223.006H406.59V266.335H407.661V223.006Z" fill="#3F3D56"/>
<path d="M417.548 228.527C417.616 243.678 407.206 256.01 407.206 256.01C407.206 256.01 396.685 243.777 396.617 228.626C396.549 213.475 406.959 201.143 406.959 201.143C406.959 201.143 417.479 213.376 417.548 228.527Z" fill="#26EF15"/>
<path d="M212.691 221.909H211.619V265.238H212.691V221.909Z" fill="#3F3D56"/>
<path d="M222.577 227.43C222.645 242.582 212.235 254.913 212.235 254.913C212.235 254.913 201.715 242.68 201.646 227.529C201.578 212.378 211.988 200.046 211.988 200.046C211.988 200.046 222.509 212.279 222.577 227.43Z" fill="#FF6B63"/>
<path opacity="0.1" d="M222.577 227.43C222.645 242.582 212.235 254.913 212.235 254.913C212.235 254.913 201.715 242.68 201.646 227.529C201.578 212.378 211.988 200.046 211.988 200.046C211.988 200.046 222.509 212.279 222.577 227.43Z" fill="#26EF15"/>
<path d="M198.764 221.909H197.693V265.238H198.764V221.909Z" fill="#3F3D56"/>
<path d="M208.651 227.43C208.719 242.582 198.309 254.913 198.309 254.913C198.309 254.913 187.788 242.68 187.72 227.529C187.652 212.378 198.062 200.046 198.062 200.046C198.062 200.046 208.583 212.279 208.651 227.43Z" fill="#26EF15"/>
<path d="M611 265.24H1.98511V266.337H611V265.24Z" fill="#3F3D56"/>
<path d="M139.869 232.42C139.869 232.42 140.417 233.064 139.477 234.31C138.537 235.555 139.296 238.259 141.082 238.327C142.868 238.396 143.734 239.162 143.304 240.171C142.873 241.18 142.356 243.578 144.301 243.213C146.246 242.849 146.861 243.642 146.516 244.251C146.172 244.86 147.384 243.039 147.384 243.039C147.384 243.039 148.468 244.693 149.798 243.535C151.128 242.378 151.657 231.886 148.945 231.708C146.233 231.53 139.869 232.42 139.869 232.42Z" fill="#2F2E41"/>
<path d="M153.618 282.316L154.236 286.746H157.017L156.09 281.683L153.618 282.316Z" fill="#FFB8B8"/>
<path d="M157.326 284.056C157.326 284.056 161.034 287.537 160.107 287.853C159.18 288.17 155.781 291.967 155.163 292.283C154.61 292.566 148.673 294.498 149.6 292.283C150.282 290.843 151.355 289.634 152.691 288.802L153.309 285.005L157.326 284.056Z" fill="#F2F2F2"/>
<path opacity="0.1" d="M157.326 284.056C157.326 284.056 161.034 287.537 160.107 287.853C159.18 288.17 155.781 291.967 155.163 292.283C154.61 292.566 148.673 294.498 149.6 292.283C150.282 290.843 151.355 289.634 152.691 288.802L153.309 285.005L157.326 284.056Z" fill="black"/>
<path d="M157.326 278.993L157.944 283.423H160.725L159.798 278.361L157.326 278.993Z" fill="#FFB8B8"/>
<path d="M145.705 267.234L149.755 253.521C149.755 253.521 142.957 247.192 147.592 245.294C152.227 243.395 153.463 252.888 153.463 252.888L151.918 269.342H145.738L145.705 267.234Z" fill="#FFB8B8"/>
<path d="M155.163 257.16C155.163 257.16 147.176 267.649 148.388 269.208C149.601 270.766 151.764 280.259 151.764 280.259C151.764 280.259 151.455 284.056 152.691 284.056C153.927 284.056 157.017 283.423 157.017 282.474C157.017 281.525 154.236 269.5 154.236 269.5L162.27 258.742L155.163 257.16Z" fill="#FF6B63"/>
<path d="M155.781 257.793L163.815 253.363C163.815 253.363 169.378 256.211 167.833 258.742C166.288 261.273 159.18 267.918 159.18 267.918C159.18 267.918 161.343 278.677 161.034 278.993C160.725 279.31 157.326 280.575 156.399 280.259C155.472 279.943 150.527 267.602 151.764 266.969C153 266.336 157.017 259.691 157.017 259.691L155.781 257.793Z" fill="#FF6B63"/>
<path d="M133.84 378.857C133.84 378.857 139.403 382.338 140.021 382.338C140.639 382.338 148.982 384.553 145.274 386.135C141.566 387.717 127.351 385.502 127.66 384.553C127.969 383.604 127.66 377.908 128.278 377.908C128.896 377.908 133.84 378.857 133.84 378.857Z" fill="#2F2E41"/>
<path d="M140.021 378.351C140.021 378.351 145.583 381.832 146.201 381.832C146.819 381.832 155.163 384.047 151.455 385.629C147.746 387.211 133.531 384.996 133.84 384.047C134.149 383.097 133.84 377.402 134.458 377.402C135.077 377.402 140.021 378.351 140.021 378.351Z" fill="#2F2E41"/>
<path d="M133.614 312.366C133.614 312.366 135.076 320.951 136.622 324.432C138.167 327.913 136.313 344.367 135.386 346.898C134.458 349.43 125.497 379.49 128.278 379.807C131.059 380.123 136.622 379.807 136.622 379.807L145.583 351.012L144.038 312.408L133.614 312.366Z" fill="#575A88"/>
<path opacity="0.1" d="M133.614 312.366C133.614 312.366 135.076 320.951 136.622 324.432C138.167 327.913 136.313 344.367 135.386 346.898C134.458 349.43 125.497 379.49 128.278 379.807C131.059 380.123 136.622 379.807 136.622 379.807L145.583 351.012L144.038 312.408L133.614 312.366Z" fill="black"/>
<path d="M136.004 311.585C136.004 311.585 137.24 320.129 140.021 322.027C142.802 323.926 141.875 325.824 141.875 325.824L140.639 342.595C140.639 342.595 128.587 372.972 132.295 376.769C136.004 380.566 139.403 378.984 140.948 378.667C142.493 378.351 145.274 371.706 143.729 369.807C142.184 367.909 146.819 356.518 148.055 354.619C149.292 352.72 148.055 350.189 149.601 349.556C151.146 348.923 154.545 344.81 154.545 341.962C154.545 339.114 158.871 308.737 156.09 306.839C153.309 304.94 135.482 310.757 135.482 310.757L136.004 311.585Z" fill="#575A88"/>
<path d="M130.132 267.286C133.887 267.286 136.931 264.169 136.931 260.324C136.931 256.479 133.887 253.363 130.132 253.363C126.377 253.363 123.334 256.479 123.334 260.324C123.334 264.169 126.377 267.286 130.132 267.286Z" fill="#FFB8B8"/>
<path d="M145.583 240.706C148.655 240.706 151.146 238.156 151.146 235.01C151.146 231.864 148.655 229.314 145.583 229.314C142.511 229.314 140.021 231.864 140.021 235.01C140.021 238.156 142.511 240.706 145.583 240.706Z" fill="#FFB8B8"/>
<path d="M134.767 260.324C134.767 260.324 138.476 267.286 140.33 267.286C142.184 267.286 132.913 274.563 132.913 274.563C132.913 274.563 129.823 265.387 129.205 265.071C128.587 264.754 134.767 260.324 134.767 260.324Z" fill="#FFB8B8"/>
<path d="M136.004 266.653C136.004 266.653 127.969 269.5 128.278 270.45C128.587 271.399 126.115 273.614 126.115 274.563C126.115 275.513 125.497 284.056 129.205 291.017C132.913 297.979 138.785 303.042 136.004 306.206C133.222 309.37 128.896 314.749 133.531 314.749C138.167 314.749 145.583 307.788 152.382 310.319C159.18 312.851 157.635 303.358 157.635 303.358C157.635 303.358 158.562 296.08 156.708 293.865C154.854 291.65 148.364 275.829 148.364 273.93C148.364 272.032 142.184 264.754 140.639 264.754C139.094 264.754 136.004 266.653 136.004 266.653Z" fill="#8985A8"/>
<path d="M147.128 238.491C147.128 238.491 149.645 243.39 149.777 244.263C149.91 245.136 154.236 238.491 154.236 238.491L149.291 235.01L147.128 238.491Z" fill="#FFB8B8"/>
<path d="M148.055 242.288L153.309 236.592L159.489 239.44C159.489 239.44 165.253 252.413 165.616 253.363C165.979 254.312 156.399 258.742 155.472 258.742C154.545 258.742 148.055 248.933 148.055 248.933C148.055 248.933 146.51 244.186 148.055 242.288Z" fill="#F2F2F2"/>
<path d="M145.583 249.882V255.578H149.292L148.072 249.882H145.583Z" fill="#FFB8B8"/>
<path d="M147.699 254.154C147.23 254.147 146.771 254.287 146.382 254.555C145.993 254.823 145.693 255.205 145.522 255.652C145.28 256.321 145.362 257.024 146.51 257.318C148.982 257.951 149.291 257.318 149.291 257.318C149.291 257.318 153.583 256.685 152.673 255.42C151.764 254.154 149.291 254.154 149.291 254.154H147.699Z" fill="#FFB8B8"/>
<path d="M161.034 281.525C161.034 281.525 164.743 285.005 163.815 285.322C162.888 285.638 159.489 289.435 158.871 289.752C158.318 290.035 152.382 291.967 153.309 289.752C153.991 288.311 155.063 287.103 156.399 286.271L157.017 282.474L161.034 281.525Z" fill="#F2F2F2"/>
<path d="M127.71 254.966C128.135 254.71 128.638 254.393 128.65 253.888C128.639 253.702 128.575 253.524 128.466 253.376C128.358 253.227 128.209 253.114 128.039 253.05C127.696 252.929 127.333 252.879 126.971 252.903C126.832 252.895 126.693 252.909 126.558 252.944C126.206 253.056 126.003 253.422 125.726 253.67C125.287 253.985 124.782 254.192 124.251 254.274C123.384 254.505 122.552 254.858 121.779 255.323C121.627 255.402 121.493 255.514 121.388 255.653C121.267 255.907 121.212 256.189 121.231 256.472C121.161 257.545 120.533 258.48 120.063 259.442C119.594 260.405 119.286 261.604 119.837 262.521C120.055 262.806 120.259 263.102 120.448 263.409C120.838 264.242 120.351 265.268 120.633 266.145C120.759 266.49 120.962 266.801 121.225 267.053C121.767 267.613 122.436 268.028 123.172 268.261C123.874 268.482 124.745 268.63 125.02 269.327C125.081 269.643 125.168 269.953 125.281 270.253C125.406 270.406 125.561 270.532 125.736 270.622C125.91 270.711 126.101 270.763 126.296 270.775C126.727 270.876 127.171 270.909 127.611 270.872C127.832 270.853 128.046 270.788 128.241 270.681C128.436 270.574 128.608 270.427 128.746 270.25C128.87 270.001 129.025 269.768 129.205 269.557C129.653 269.174 130.332 269.476 130.907 269.375C131.14 269.33 131.355 269.218 131.528 269.052C131.701 268.886 131.824 268.673 131.882 268.437C131.898 268.187 131.966 267.943 132.08 267.721C132.437 267.253 133.376 267.584 133.612 267.041C133.765 266.689 133.445 266.317 133.135 266.097C132.605 265.781 132.096 265.427 131.612 265.04C131.372 264.843 131.186 264.585 131.073 264.292C130.96 263.999 130.923 263.681 130.966 263.368C131.179 262.451 132.349 261.946 132.387 261.004C132.371 260.734 132.291 260.471 132.156 260.239C132.02 260.007 131.832 259.811 131.607 259.669C131.156 259.389 130.723 259.079 130.312 258.741C130.035 258.466 129.826 258.122 129.525 257.875C128.93 257.495 128.242 257.296 127.541 257.302C127.169 257.263 125.685 257.087 125.743 256.507C125.792 256.025 127.332 255.192 127.71 254.966Z" fill="#2F2E41"/>
<path d="M148.055 241.971C148.055 241.971 144.656 243.237 144.656 244.819C144.656 246.401 143.111 251.464 144.656 251.464C146.201 251.464 149.291 250.25 149.291 250.25L148.055 241.971Z" fill="#F2F2F2"/>
<path d="M147.128 264.754C147.128 264.754 156.09 261.59 156.399 261.59C156.708 261.59 161.034 259.058 160.725 258.109L159.489 250.198C159.489 250.198 154.545 239.756 157.944 239.756C161.343 239.756 163.197 247.983 163.197 247.983C163.197 247.983 170.614 262.223 166.597 265.387C162.579 268.551 145.892 274.247 144.965 273.298C144.038 272.348 147.128 264.754 147.128 264.754Z" fill="#FFB8B8"/>
<path d="M155.781 244.186L157.867 246.245L155.163 248.933C155.163 248.933 151.455 247.351 151.764 248.3C152.073 249.249 153.927 252.097 155.163 252.097C156.399 252.097 162.832 247.984 162.86 246.718C162.888 245.452 158.871 241.022 157.944 240.706C157.017 240.389 155.781 244.186 155.781 244.186Z" fill="#FFB8B8"/>
<path d="M151.859 241.981C151.859 241.981 156.399 246.085 157.017 246.085C157.635 246.085 158.759 239.919 158.759 239.919C158.759 239.919 155.096 237.474 153.739 238.141C152.382 238.807 151.859 241.981 151.859 241.981Z" fill="#F2F2F2"/>
<path d="M136.004 268.551C136.004 268.551 136.004 264.121 145.274 264.121H149.291L147.437 274.563L141.257 276.462L136.004 268.551Z" fill="#8985A8"/>
<path d="M156.254 232.702C155.346 232.697 154.438 232.64 153.536 232.53C152.827 230.777 151.925 229.305 150.949 228.757C150.159 228.138 149.283 227.645 148.349 227.296C146.29 226.4 142.862 226.959 142.662 227.978C138.61 229.96 139.634 233.441 139.634 233.441C140.263 234.804 141.676 234.2 142.874 233.583C142.985 234.075 143.244 234.52 143.614 234.855C143.984 235.189 144.446 235.397 144.937 235.449C146.916 235.525 147.875 236.374 147.398 237.492C146.921 238.609 146.348 241.265 148.503 240.861C150.658 240.458 151.339 241.336 150.957 242.011C150.576 242.686 151.918 240.669 151.918 240.669C151.918 240.669 153.119 242.5 154.592 241.218C154.742 241.071 154.848 240.885 154.9 240.679C155.362 240.959 155.908 241.057 156.436 240.955C158.201 240.146 157.105 238.247 157.105 238.247C157.105 238.247 159.462 237.877 158.702 237.938C157.943 238 157.462 236.992 158.747 235.175C160.032 233.358 157.445 232.743 156.254 232.702Z" fill="#2F2E41"/>
<path d="M144.299 231.277L143.419 230.978L142.541 233.68L143.421 233.98L144.299 231.277Z" fill="#FF6B63"/>
<path d="M209.811 385.903H56.084V387H209.811V385.903Z" fill="#3F3D56"/>
<path d="M540.296 334.347H386.57V335.444H540.296V334.347Z" fill="#3F3D56"/>
<path d="M499.969 235.837L508.607 234.111C508.607 234.111 510.714 226.776 513.243 227.639C515.771 228.502 511.557 235.837 511.557 235.837L499.547 241.447L499.969 235.837Z" fill="#A0616A"/>
<path d="M447.505 243.173L443.712 248.135C443.712 248.135 438.234 247.919 439.92 250.939C441.605 253.96 445.398 252.234 445.608 251.587C445.819 250.939 451.929 245.33 451.929 245.33L447.505 243.173Z" fill="#A0616A"/>
<path d="M462.991 237.455L466.151 235.729C466.151 235.729 479.636 234.65 484.693 238.102C489.75 241.554 463.412 241.986 463.412 241.986L462.991 237.455Z" fill="#FF6B63"/>
<path d="M468.996 234.327C468.996 234.327 467.31 230.228 469.628 229.796C470.95 229.531 472.309 229.531 473.631 229.796L471.103 231.954L468.996 234.327Z" fill="#3F3D56"/>
<path opacity="0.1" d="M468.996 234.327C468.996 234.327 467.31 230.228 469.628 229.796C470.95 229.531 472.309 229.531 473.631 229.796L471.103 231.954L468.996 234.327Z" fill="black"/>
<path d="M457.407 259.138L451.297 258.706L452.351 260.648C452.351 260.648 443.923 263.237 446.662 270.572C448.586 275.51 450.911 280.273 453.615 284.812L456.354 290.205C456.354 290.205 462.043 291.068 462.254 289.342C462.464 287.616 462.254 286.753 461.2 285.89C460.233 284.999 459.631 283.766 459.514 282.438C459.514 281.575 459.725 280.712 459.093 280.281C458.461 279.85 458.25 279.202 458.25 277.908C458.25 276.613 455.933 271.867 455.933 271.867C455.933 271.867 463.307 271.651 465.625 273.593C467.942 275.535 475.528 282.87 475.528 282.87C475.947 283.319 476.302 283.828 476.581 284.38C477.002 285.243 477.002 285.675 477.845 286.106C478.688 286.538 478.056 288.264 477.845 288.479C477.635 288.695 475.528 297.325 475.528 297.325C475.528 297.325 473.21 301.424 475.738 301.64C478.267 301.856 480.584 302.071 480.795 301.64C481.029 301.042 481.311 300.465 481.638 299.914C482.27 298.835 481.638 296.462 481.638 296.462C481.638 296.462 487.748 288.479 485.852 283.517C483.955 278.555 479.952 267.336 479.952 267.336L473.842 264.747L462.675 260.648L457.407 259.138Z" fill="#2F2E41"/>
<path d="M456.986 289.127C456.986 289.127 455.722 294.089 455.301 294.305C454.879 294.52 450.244 298.619 453.404 299.267C456.565 299.914 458.882 299.698 459.515 299.051C460.147 298.404 459.936 297.756 460.989 297.541C462.043 297.325 463.939 296.678 463.728 295.167C463.518 293.657 462.464 289.558 461.832 289.127C461.2 288.695 456.986 289.127 456.986 289.127Z" fill="#2F2E41"/>
<path d="M475.317 300.13C475.317 300.13 473.421 301.64 474.474 304.445C475.528 307.249 477.002 310.27 477.002 310.27C477.002 310.27 478.688 315.663 481.427 314.8C481.92 314.622 482.358 314.313 482.698 313.906C483.038 313.5 483.268 313.009 483.365 312.482C483.558 311.718 483.59 310.92 483.458 310.142C483.326 309.364 483.033 308.624 482.599 307.971L481.006 305.523L479.32 300.993L475.317 300.13Z" fill="#2F2E41"/>
<path d="M470.049 236.7C470.049 236.7 467.521 236.484 467.1 237.132C466.678 237.779 464.782 246.409 467.1 247.272C469.417 248.135 476.37 249.645 477.424 248.566C478.477 247.487 478.899 237.995 478.899 237.995L470.049 236.7Z" fill="#A0616A"/>
<path opacity="0.1" d="M470.049 236.7C470.049 236.7 467.521 236.484 467.1 237.132C466.678 237.779 464.782 246.409 467.1 247.272C469.417 248.135 476.37 249.645 477.424 248.566C478.477 247.487 478.899 237.995 478.899 237.995L470.049 236.7Z" fill="black"/>
<path d="M466.257 243.82C466.257 243.82 469.207 246.84 471.103 246.409C472.999 245.977 477.424 244.035 477.845 243.172C478.267 242.309 483.534 242.094 483.534 242.094L477.845 258.275L481.848 271.867C481.848 271.867 484.166 269.062 477.845 268.846C471.524 268.631 463.096 265.394 461.621 261.079C461.621 261.079 452.351 259.785 451.929 259.569C451.508 259.353 452.983 258.059 452.983 258.059L459.093 256.333L463.518 250.508L466.257 243.82Z" fill="#F2F2F2"/>
<path d="M468.153 237.132C468.153 237.132 469.207 235.621 468.153 235.621C466.465 235.586 464.776 235.658 463.096 235.837C462.043 236.053 458.04 234.974 457.618 236.269C457.197 237.563 457.197 245.546 458.04 246.193C458.882 246.84 459.304 246.84 458.25 248.135C457.197 249.429 454.668 253.744 455.3 255.254C455.933 256.765 448.558 257.196 449.612 258.922C449.898 259.415 450.296 259.83 450.774 260.131C451.251 260.431 451.792 260.609 452.351 260.648C452.351 260.648 452.772 257.196 455.3 258.922C457.829 260.648 461.2 264.963 463.939 262.158C466.678 259.354 467.732 256.765 467.942 253.097C468.163 250.357 468.021 247.599 467.521 244.898C467.1 242.741 468.153 237.132 468.153 237.132Z" fill="#FF6B63"/>
<path d="M479.109 241.231C479.109 241.231 480.795 242.741 479.109 246.409C477.424 250.076 472.999 258.706 476.581 264.316C480.163 269.925 481.638 271.435 480.795 272.514C480.282 273.198 479.988 274.026 479.952 274.887L482.27 274.024C482.524 272.26 482.948 270.526 483.534 268.846C484.377 266.689 481.848 260.216 481.848 260.216L482.691 251.802C482.691 251.802 486.062 246.409 486.484 246.193C486.905 245.977 485.641 236.7 485.641 236.7C485.641 236.7 483.534 236.053 482.481 236.7C481.427 237.347 479.109 241.231 479.109 241.231Z" fill="#FF6B63"/>
<path d="M458.882 236.484H457.618L448.98 241.015C448.98 241.015 448.347 238.21 447.926 238.858C447.505 239.505 447.715 241.231 446.662 241.662C445.608 242.094 444.976 242.741 446.662 243.604C448.347 244.467 448.558 243.82 448.558 245.33C448.558 246.84 449.822 247.056 450.876 246.624C451.929 246.193 452.14 245.977 453.194 246.409C454.247 246.84 453.615 247.487 455.09 246.84C456.565 246.193 460.357 246.409 460.357 246.409L458.882 236.484Z" fill="#FF6B63"/>
<path d="M484.166 237.132L485.641 236.7C485.641 236.7 490.066 237.132 491.119 237.132C492.173 237.132 493.226 236.916 493.858 236.916C494.49 236.916 497.651 236.484 498.072 236.053C498.494 235.621 500.39 234.543 500.601 235.19C500.811 235.837 503.129 239.936 501.022 241.878C498.915 243.82 498.494 242.957 497.229 243.82C495.965 244.683 485.852 246.409 485.641 246.193C485.43 245.977 484.166 237.132 484.166 237.132Z" fill="#FF6B63"/>
<path d="M475.528 245.33C479.018 245.33 481.848 242.432 481.848 238.858C481.848 235.283 479.018 232.385 475.528 232.385C472.037 232.385 469.207 235.283 469.207 238.858C469.207 242.432 472.037 245.33 475.528 245.33Z" fill="#A0616A"/>
<path d="M470.876 239.118C470.948 239.259 470.992 239.413 471.007 239.571C471.091 239.938 471.293 240.266 471.58 240.503C471.866 240.739 472.222 240.871 472.591 240.877C472.56 241.016 472.559 241.16 472.587 241.299C472.615 241.439 472.671 241.571 472.752 241.686C472.833 241.802 472.937 241.899 473.057 241.971C473.177 242.043 473.31 242.088 473.448 242.103C473.875 241.543 474.194 240.904 474.387 240.221C474.435 239.952 474.543 239.699 474.704 239.482C474.957 239.265 475.275 239.143 475.604 239.136C477.286 238.914 478.979 238.785 480.674 238.749C480.905 238.766 481.135 238.718 481.341 238.61C481.817 238.295 481.658 237.537 481.357 237.046C480.764 236.084 479.863 235.364 478.808 235.009C478.04 234.797 477.254 234.664 476.46 234.61C475.409 234.438 474.35 234.326 473.287 234.273C472.216 234.223 471.156 234.513 470.252 235.104C469.619 235.561 468.579 236.842 469.088 237.651C469.169 237.78 469.426 237.844 469.536 237.976C469.685 238.156 469.685 238.427 469.855 238.59C470.137 238.862 470.649 238.776 470.876 239.118Z" fill="#2F2E41"/>
<path d="M475.528 228.07C475.528 228.07 468.364 230.659 468.996 234.327C469.628 237.995 471.524 242.31 475.528 242.094C479.531 241.878 481.638 237.416 481.638 237.416L480.584 231.306C480.584 231.306 476.581 228.07 475.528 228.07Z" fill="#3F3D56"/>
<path d="M474.624 241.017C474.624 241.017 477.44 237.888 478.858 239.702C478.858 239.702 478.793 239.613 474.624 241.017Z" fill="#2F2E41"/>
<path d="M479.941 321.017C476.164 321.017 471.491 319.736 466.937 315.105C455.789 303.768 445.198 302.631 445.093 302.621L445.132 302.191C445.239 302.201 455.98 303.354 467.235 314.799C473.017 320.68 478.986 321.04 482.975 320.306C485.61 319.817 488.119 318.781 490.349 317.263L490.598 317.611C488.321 319.164 485.758 320.225 483.066 320.728C482.035 320.92 480.989 321.016 479.941 321.017V321.017Z" fill="#2F2E41"/>
<path d="M450.771 311.672C452.167 311.672 453.299 310.513 453.299 309.083C453.299 307.653 452.167 306.494 450.771 306.494C449.374 306.494 448.242 307.653 448.242 309.083C448.242 310.513 449.374 311.672 450.771 311.672Z" fill="#2F2E41"/>
<path d="M468.68 323.754C470.076 323.754 471.208 322.595 471.208 321.165C471.208 319.735 470.076 318.576 468.68 318.576C467.283 318.576 466.151 319.735 466.151 321.165C466.151 322.595 467.283 323.754 468.68 323.754Z" fill="#2F2E41"/>
</svg>
