<svg width="214" height="75" viewBox="0 0 214 75" fill="none" xmlns="http://www.w3.org/2000/svg">
<g clip-path="url(#clip0)">
<path d="M12.6586 40.3271V26.0975C12.6586 24.6945 11.4025 23.5573 9.85295 23.5573C9.83821 23.5573 9.75727 23.5587 9.75539 23.5588C8.25111 23.6054 7.04732 24.7241 7.04732 26.0975V40.9297L7.05498 40.9328" fill="#FEBB8E"/>
<path d="M18.27 45.4611V29.8695C18.27 28.4665 17.0139 27.3293 15.4644 27.3293C15.4496 27.3293 15.3687 27.3307 15.3668 27.3308C13.8625 27.3774 12.6587 28.4961 12.6587 29.8695V40.3272" fill="#FEBB8E"/>
<path d="M23.8814 47.7678V37.5288C23.8814 36.1259 22.6253 34.9886 21.0758 34.9886C21.061 34.9886 20.9801 34.99 20.9782 34.9901C19.4739 35.0367 18.2701 36.1554 18.2701 37.5288V45.4884" fill="#FEBB8E"/>
<path d="M1.47956 27.4811C1.47956 26.235 2.937 25.3317 4.37696 25.3931C5.88615 25.4573 7.04702 26.6343 7.04702 28.0021V40.9295L29.897 50.2114C31.9881 51.0002 33.3502 52.85 33.3502 54.9011V69.6911H17.9191V61.6616L11.6427 58.4169C9.96712 57.7398 8.57601 56.5939 7.67356 55.1475L3.27911 48.104C2.07126 46.1681 1.43981 43.9825 1.4466 41.7591C1.45947 37.5249 1.47956 30.4746 1.47956 27.4811Z" fill="#FCD5A2"/>
<path d="M13.6505 49.5501L7.77226 43.8213C7.05742 43.1641 6.77399 42.2681 6.91982 41.4218C7.01666 40.8598 7.30254 40.3196 7.77703 39.8856C7.78643 39.8771 8.02505 39.6817 8.02592 39.6812C9.24879 38.7797 11.0515 38.852 12.1806 39.8898L25.3839 51.9699" fill="#FCD5A2"/>
<path d="M30.4723 49.0109L25.3267 46.9207V37.5288C25.3267 35.4065 23.4196 33.68 21.0758 33.68C21.0564 33.68 20.9824 33.6819 20.9289 33.6834L20.9288 33.6823C20.5046 33.6954 20.0973 33.7636 19.7151 33.879V29.8695C19.7151 27.7472 17.8081 26.0207 15.4642 26.0207C15.4448 26.0207 15.3708 26.0226 15.3174 26.0241V26.023C14.8932 26.0361 14.4859 26.1043 14.1037 26.2197V26.0975C14.1037 23.9752 12.1967 22.2487 9.85281 22.2487C9.83026 22.2487 9.7064 22.251 9.70597 22.251C8.06251 22.3018 6.67342 23.1782 6.0135 24.4347C5.53322 24.2324 5.00395 24.11 4.44491 24.0862C3.24039 24.0337 2.01115 24.4426 1.16103 25.177C0.43447 25.8046 0.0344088 26.623 0.0344088 27.4812C0.0344088 30.5123 0.0135964 37.7256 0.00131126 41.7554C-0.00620434 44.2002 0.692023 46.6181 2.02069 48.7476L6.41529 55.7911C7.45028 57.4498 9.07133 58.7945 10.9858 59.584L16.4739 62.4212V69.6912C16.4739 70.4139 17.121 70.9997 17.9192 70.9997H33.3505C34.1487 70.9997 34.7958 70.4139 34.7958 69.6912V54.9012C34.7956 52.3202 33.0993 50.01 30.4723 49.0109ZM21.0217 36.2981L21.0756 36.297C21.8257 36.297 22.4361 36.8496 22.4361 37.5288V45.7465L19.7153 44.6412V37.5288C19.7153 36.8631 20.2888 36.3235 21.0217 36.2981ZM15.4103 28.6386L15.4642 28.6376C16.2143 28.6376 16.8247 29.1902 16.8247 29.8694V42.2783L14.1039 39.789V29.8694C14.1039 29.2037 14.6772 28.6642 15.4103 28.6386ZM8.49249 26.0976C8.49249 25.4334 9.06324 24.8948 9.79803 24.8669L9.85295 24.8658C10.6031 24.8658 11.2134 25.4185 11.2134 26.0976V37.8956C10.3259 37.6668 9.37528 37.6886 8.49263 37.9674V26.0976H8.49249ZM31.905 68.3827H19.3644V61.6617C19.3644 61.1919 19.0863 60.7582 18.6356 60.5253L12.3593 57.2805C12.3178 57.259 12.2753 57.2395 12.2316 57.2219C10.8486 56.663 9.67677 55.6978 8.93186 54.5038L4.53741 47.4603C3.45473 45.725 2.88571 43.7549 2.89178 41.7626C2.90406 37.7314 2.92488 30.5155 2.92488 27.4811C2.92488 27.3413 3.00278 27.2031 3.15642 27.0703C3.43738 26.8275 3.88933 26.6831 4.30919 26.7001C5.02202 26.7305 5.60202 27.3146 5.60202 28.0023V40.7564C5.55591 40.908 5.51906 41.0626 5.49203 41.2199C5.27263 42.4941 5.73383 43.8023 6.72661 44.7243L12.592 50.4405C13.1351 50.97 14.0498 51.0005 14.6345 50.5086C15.2192 50.0167 15.2529 49.1887 14.7096 48.6593L8.83141 42.9304C8.82187 42.9211 8.26673 42.0962 8.3481 41.6231C8.40028 41.3206 8.55131 41.0446 8.78429 40.8245C8.82838 40.7881 8.91654 40.7159 8.96293 40.6779C9.62315 40.2092 10.5586 40.263 11.1536 40.8098L24.3569 52.8899C24.6396 53.1485 25.0118 53.2781 25.3842 53.2781C25.7516 53.2781 26.1192 53.152 26.4008 52.8996C26.9681 52.3912 26.9729 51.5628 26.4115 51.049L24.8002 49.5747L29.3058 51.4051C29.3176 51.4099 29.3296 51.4145 29.3416 51.4191C30.8989 52.0065 31.9052 53.3733 31.9052 54.9008L31.905 68.3827Z" fill="black"/>
<path d="M17.0754 54.1967C16.9815 54.1967 16.8862 54.1875 16.7921 54.1705C16.7011 54.1535 16.61 54.1286 16.5219 54.0959C16.4352 54.0632 16.3513 54.0226 16.2733 53.9755C16.1938 53.9284 16.1201 53.8735 16.0536 53.8133C15.9871 53.7531 15.9264 53.6863 15.8729 53.6144C15.8209 53.5437 15.7761 53.4678 15.74 53.388C15.7038 53.3095 15.6764 53.227 15.6576 53.1433C15.6388 53.0595 15.63 52.9732 15.63 52.8881C15.63 52.803 15.6386 52.7167 15.6576 52.6316C15.6764 52.5492 15.7038 52.4667 15.74 52.3869C15.7761 52.3084 15.8209 52.2325 15.8729 52.1618C15.9264 52.0899 15.9871 52.0231 16.0536 51.9629C16.1201 51.9014 16.1938 51.8478 16.2733 51.7993C16.3513 51.7522 16.4352 51.7117 16.5219 51.679C16.61 51.6462 16.7011 51.6214 16.7921 51.6044C16.9786 51.5703 17.1708 51.5703 17.3573 51.6044C17.4498 51.6214 17.5408 51.6462 17.6275 51.679C17.7143 51.7117 17.7995 51.7522 17.8776 51.7993C17.9571 51.8478 18.0308 51.9014 18.0973 51.9629C18.3661 52.2063 18.5207 52.5439 18.5207 52.8881C18.5207 52.9732 18.5106 53.0595 18.4918 53.1433C18.473 53.227 18.4456 53.3095 18.4094 53.388C18.3733 53.4678 18.3285 53.5437 18.2765 53.6144C18.2244 53.6863 18.1637 53.7531 18.0973 53.8133C18.0308 53.8735 17.9571 53.9284 17.8776 53.9755C17.7995 54.0226 17.7143 54.0632 17.6275 54.0959C17.5408 54.1286 17.4498 54.1535 17.3573 54.1705C17.2648 54.1875 17.1695 54.1967 17.0754 54.1967Z" fill="black"/>
<path d="M61.3413 40.3271V26.0975C61.3413 24.6945 62.5974 23.5573 64.1469 23.5573C64.1617 23.5573 64.2426 23.5587 64.2445 23.5588C65.7487 23.6054 66.9525 24.7241 66.9525 26.0975V40.9297L66.9449 40.9328" fill="#FEBB8E"/>
<path d="M55.7299 45.4611V29.8695C55.7299 28.4665 56.986 27.3293 58.5355 27.3293C58.5503 27.3293 58.6312 27.3307 58.6331 27.3308C60.1373 27.3774 61.3411 28.4961 61.3411 29.8695V40.3272" fill="#FEBB8E"/>
<path d="M50.1186 47.7678V37.5288C50.1186 36.1259 51.3747 34.9886 52.9242 34.9886C52.939 34.9886 53.0199 34.99 53.0218 34.9901C54.5261 35.0367 55.7299 36.1554 55.7299 37.5288V45.4884" fill="#FEBB8E"/>
<path d="M72.5203 27.4811C72.5203 26.235 71.0628 25.3317 69.6229 25.3931C68.1137 25.4573 66.9528 26.6343 66.9528 28.0021V40.9295L44.1028 50.2114C42.0117 51.0002 40.6497 52.85 40.6497 54.9011V69.6911H56.0808V61.6616L62.3572 58.4169C64.0327 57.7398 65.4238 56.5939 66.3263 55.1475L70.7207 48.104C71.9286 46.1681 72.56 43.9825 72.5532 41.7591C72.5404 37.5249 72.5203 30.4746 72.5203 27.4811Z" fill="#FCD5A2"/>
<path d="M60.3494 49.5501L66.2276 43.8213C66.9424 43.1641 67.2258 42.2681 67.08 41.4218C66.9832 40.8598 66.6973 40.3196 66.2228 39.8856C66.2134 39.8771 65.9748 39.6817 65.9739 39.6812C64.751 38.7797 62.9483 38.852 61.8192 39.8898L48.6159 51.9699" fill="#FCD5A2"/>
<path d="M73.9656 27.4811C73.9656 26.6227 73.5655 25.8044 72.839 25.1769C71.9888 24.4425 70.7609 24.034 69.5551 24.086C68.9961 24.1099 68.4668 24.2322 67.9867 24.4345C67.327 23.1781 65.9387 22.3018 64.2982 22.2511C64.2952 22.251 64.1699 22.2488 64.1472 22.2488C61.8033 22.2488 59.8963 23.9753 59.8963 26.0976V26.2198C59.5141 26.1044 59.1068 26.0362 58.6826 26.0232L58.6825 26.0242C58.6292 26.0226 58.555 26.0208 58.5356 26.0208C56.1918 26.0208 54.2847 27.7475 54.2847 29.8696V33.8793C53.9026 33.7638 53.4953 33.6957 53.0711 33.6826V33.6836C53.0178 33.6821 52.9436 33.6802 52.9242 33.6802C50.5802 33.6802 48.6733 35.4069 48.6733 37.529V46.9209L43.5277 49.0111C40.9007 50.0102 39.2044 52.3203 39.2044 54.9015V69.6916C39.2044 70.4143 39.8514 71.0001 40.6497 71.0001H56.0811C56.8793 71.0001 57.5264 70.4143 57.5264 69.6916V62.4216L63.0145 59.5844C64.9291 58.7948 66.5502 57.4501 67.5851 55.7915L71.9796 48.748C73.3081 46.6185 74.0065 44.2008 73.999 41.7558C73.9864 37.7255 73.9656 30.5123 73.9656 27.4811ZM62.7866 26.0976C62.7866 25.4185 63.3969 24.8658 64.1374 24.8658L64.2038 24.867C64.9356 24.8937 65.5075 25.4327 65.5075 26.0976V37.9669C64.625 37.688 63.6741 37.6663 62.7867 37.8951V26.0976H62.7866ZM57.1752 29.8695C57.1752 29.1903 57.7855 28.6377 58.5258 28.6376L58.5903 28.6386C59.323 28.6643 59.8961 29.2038 59.8961 29.8694V39.789L57.1753 42.2783L57.1752 29.8695ZM51.5638 37.5288C51.5638 36.8495 52.1741 36.297 52.9144 36.2969L52.9787 36.2979C53.7115 36.3236 54.2847 36.8631 54.2847 37.5287V44.6411L51.5639 45.7463L51.5638 37.5288ZM69.4626 47.4603L65.0681 54.5038C64.3232 55.6978 63.1512 56.6631 61.7684 57.2219C61.7249 57.2395 61.6822 57.259 61.6407 57.2805L55.3644 60.5253C54.9138 60.7582 54.6356 61.1919 54.6356 61.6617V68.3827H42.095V54.9012C42.095 53.3736 43.1014 52.0069 44.6585 51.4195C44.6705 51.4149 44.6824 51.4103 44.6944 51.4055L49.2 49.5751L47.5886 51.0494C47.0271 51.5631 47.0319 52.3916 47.5993 52.9C47.8811 53.1524 48.2485 53.2784 48.6159 53.2784C48.9884 53.2784 49.3607 53.1489 49.6433 52.8903L62.3615 41.2539C62.3635 41.2521 62.8489 40.808 62.8489 40.808C63.442 40.2627 64.3786 40.2093 65.0365 40.6776C65.0826 40.7153 65.1712 40.788 65.2156 40.8245C65.4493 41.0455 65.6 41.3212 65.6522 41.6234C65.7337 42.0964 65.1784 42.9214 65.1689 42.9306L59.2907 48.6595C58.7474 49.189 58.7811 50.017 59.3658 50.5088C59.9506 51.0007 60.8652 50.9702 61.4083 50.4408L67.2735 44.7246C68.2662 43.8026 68.7275 42.4944 68.5081 41.2202C68.4811 41.0629 68.4442 40.9082 68.3981 40.7567V28.0025C68.3981 27.3149 68.9781 26.7307 69.6908 26.7003C70.1113 26.6837 70.5628 26.8279 70.8437 27.0705C70.9974 27.2032 71.0753 27.3414 71.0753 27.4813C71.0753 30.5155 71.0961 37.7316 71.1084 41.7629C71.1143 43.7549 70.5453 45.725 69.4626 47.4603Z" fill="black"/>
<path d="M56.9243 54.1967C56.8303 54.1967 56.7349 54.1875 56.6424 54.1705C56.5499 54.1535 56.4589 54.1286 56.3722 54.0959C56.2855 54.0632 56.2002 54.0226 56.1221 53.9755C56.0441 53.9284 55.9689 53.8735 55.9025 53.8133C55.836 53.7531 55.7753 53.6863 55.7232 53.6144C55.6712 53.5437 55.6264 53.4665 55.5903 53.388C55.5541 53.3095 55.5267 53.227 55.5079 53.1433C55.4891 53.0595 55.479 52.9732 55.479 52.8881C55.479 52.803 55.4891 52.7167 55.5079 52.6316C55.5267 52.5479 55.5541 52.4667 55.5903 52.3869C55.6264 52.3084 55.6712 52.2325 55.7232 52.1618C55.7753 52.0899 55.836 52.0231 55.9025 51.9616C55.9689 51.9014 56.0441 51.8478 56.1221 51.7993C56.2 51.7522 56.2855 51.7117 56.3722 51.679C56.4589 51.6462 56.5499 51.6214 56.6424 51.6044C56.8289 51.5703 57.0211 51.5703 57.2076 51.6044C57.3001 51.6214 57.3897 51.6462 57.4778 51.679C57.5646 51.7117 57.6484 51.7522 57.7264 51.7993C57.8059 51.8478 57.8796 51.9014 57.9461 51.9616C58.0126 52.0231 58.0733 52.0899 58.1268 52.1618C58.1788 52.2325 58.2236 52.3084 58.2597 52.3869C58.2959 52.4667 58.3233 52.5479 58.3421 52.6316C58.3609 52.7167 58.3696 52.803 58.3696 52.8881C58.3696 52.9732 58.3609 53.0595 58.3421 53.1433C58.3233 53.227 58.2959 53.3095 58.2597 53.388C58.2236 53.4665 58.1788 53.5437 58.1268 53.6144C58.0733 53.6863 58.0126 53.7531 57.9461 53.8133C57.8796 53.8735 57.8059 53.9284 57.7264 53.9755C57.6484 54.0226 57.5646 54.0632 57.4778 54.0959C57.3897 54.1286 57.3001 54.1535 57.2076 54.1705C57.1136 54.1875 57.0198 54.1967 56.9243 54.1967Z" fill="black"/>
<path d="M56.5874 13.6925C55.8874 10.7606 54.1666 8.32162 51.7414 6.82525C49.4348 5.40189 46.7109 4.97058 43.8635 5.57816C43.428 5.67107 43.0301 5.78727 42.6587 5.92664C42.7958 5.97663 42.9314 6.03119 43.0664 6.0872C42.9314 6.03119 42.7958 5.97676 42.6587 5.92677C40.5922 6.70211 39.3428 8.19455 36.9998 10.3796C34.2357 7.80171 32.9937 6.18783 30.1362 5.57816C27.289 4.97058 24.5649 5.40189 22.2583 6.82525C19.8332 8.32175 18.1123 10.7606 17.4123 13.6923C16.693 16.7055 17.1624 19.9327 18.7345 22.7792C21.848 28.4175 35.4808 35.5804 33.3866 34.3657C35.4925 35.5867 36.9639 36.3499 36.9997 36.3499C37.1153 36.3499 52.1503 28.4197 55.2649 22.7793C56.8373 19.933 57.3068 16.7059 56.5874 13.6925Z" fill="#FF455E"/>
<path d="M58.0002 13.416C57.2214 10.1546 55.2879 7.42981 52.5556 5.74396C49.9047 4.10809 46.7843 3.6103 43.5321 4.30451C43.0255 4.4126 42.5594 4.54764 42.107 4.71724C42.1064 4.7175 42.106 4.71763 42.1056 4.71776C40.1512 5.45096 38.8471 6.70603 37.1957 8.29492C37.1308 8.35734 37.0656 8.42002 37 8.48322C36.9341 8.42002 36.8689 8.35708 36.804 8.29466C34.7586 6.32641 33.2809 4.9045 30.4679 4.30438C27.216 3.61043 24.0954 4.10809 21.4445 5.74383C18.7121 7.42994 16.7784 10.1544 15.9998 13.4158C15.2111 16.7194 15.7234 20.2524 17.4421 23.3642C18.7436 25.721 21.7368 28.5074 26.3386 31.6458C28.1413 32.8752 29.7876 33.8797 30.8517 34.5057C32.0179 35.192 36.5601 37.6582 37.0003 37.6582C37.4244 37.6582 43.6256 34.1795 45.8473 32.745C51.5508 29.0625 55.1544 25.9064 56.5582 23.3642C58.2765 20.2528 58.7887 16.7197 58.0002 13.416ZM53.9727 22.1941C51.4765 26.7144 40.037 33.253 37.0062 34.8512C36.7572 34.7183 36.4404 34.5469 36.0652 34.3396C40.7805 31.4831 47.2818 27.0686 49.3272 23.3644C51.0458 20.2524 51.558 16.7192 50.7693 13.4158C50.6006 12.7094 49.8316 12.2605 49.0513 12.4132C48.2711 12.5659 47.7754 13.2623 47.9439 13.9687C48.5941 16.6917 48.167 19.6129 46.7417 22.1938C45.3076 24.7905 40.4378 28.6513 33.3289 32.8392C30.4681 31.2247 22.2137 26.1534 20.0272 22.1937C18.6018 19.6129 18.1749 16.6917 18.825 13.9687C19.4463 11.366 20.9548 9.21289 23.0722 7.90627C25.0347 6.6953 27.3627 6.33047 29.8047 6.85155C31.7713 7.27108 32.8109 8.27163 34.6985 10.0878C35.0938 10.4682 35.5025 10.8615 35.9629 11.2907C36.235 11.5444 36.6091 11.6877 36.9999 11.6877C37.3907 11.6877 37.7647 11.5444 38.0369 11.2907C38.4971 10.8615 38.9056 10.4682 39.3009 10.0881C40.8247 8.6218 41.8312 7.65332 43.2121 7.13525C43.2122 7.13525 43.2125 7.13512 43.2127 7.13499C43.5199 7.0197 43.8414 6.92692 44.195 6.85141C46.6369 6.33033 48.9648 6.69504 50.9276 7.90614C53.0451 9.21263 54.5534 11.3657 55.1747 13.9686C55.8248 16.6923 55.3979 19.6133 53.9727 22.1941Z" fill="black"/>
</g>
<path d="M94.56 15.088L92.472 16.288V16.336L94.56 17.536V23.392L91.776 25H83.16V8.2H91.776L94.56 9.808V15.088ZM85.56 17.392V22.84H92.16V17.392H85.56ZM85.56 10.36V15.232H92.16V10.36H85.56ZM105.343 15.088H100.975V25H98.6466V13H100.399L100.975 13.984L102.679 13H105.343V15.088ZM109.823 20.08V23.032H114.647V20.08H109.823ZM110.279 25.12L107.495 23.512V19.6L110.279 17.992H114.647V15.088H108.695V13H114.191L116.975 14.608V25.12H116.351L114.647 24.136L112.943 25.12H110.279ZM129.842 19.48V23.392L127.058 25H120.818V22.912H127.514V19.96H123.602L120.818 18.352V14.608L123.602 13H129.602V15.088H123.146V17.872H127.058L129.842 19.48ZM136.014 13V25H133.686V13H136.014ZM133.566 10.048V7.48H136.134V10.048H133.566ZM142.634 25L139.85 23.392V7.48H142.178V22.912H145.058V25H142.634Z" fill="#FF9305"/>
<path d="M101.019 50.12V43.688L103.803 42.08H109.395L112.179 43.688V46.16H109.779V44.24H103.419V49.328H109.395L112.179 50.936V57.512L109.395 59.12H103.563L100.779 57.512V55.04H103.179V56.96H109.779V51.728H103.803L101.019 50.12ZM126.448 57.512L123.664 59.12H119.032L116.248 57.512V48.488L119.032 46.88H123.664L126.448 48.488V57.512ZM118.576 48.968V57.032H124.12V48.968H118.576ZM133.071 59L130.287 57.392V41.48H132.615V56.912H135.495V59H133.071ZM140.232 47V59H137.904V47H140.232ZM137.784 44.048V41.48H140.352V44.048H137.784ZM146.852 46.88H150.476L152.18 47.864V41.48H154.508V59.12H152.756L152.18 58.136L150.476 59.12H146.852L144.068 57.512V48.488L146.852 46.88ZM152.18 57.032V48.968H146.396V57.032H152.18ZM160.19 54.08V57.032H165.014V54.08H160.19ZM160.646 59.12L157.862 57.512V53.6L160.646 51.992H165.014V49.088H159.062V47H164.558L167.342 48.608V59.12H166.718L165.014 58.136L163.31 59.12H160.646ZM160.862 44.84L163.118 41.768H166.238L162.782 44.84H160.862ZM177.882 49.088H173.514V59H171.186V47H172.938L173.514 47.984L175.218 47H177.882V49.088ZM182.842 47V59H180.514V47H182.842ZM180.394 44.048V41.48H182.962V44.048H180.394ZM196.878 57.512L194.094 59.12H189.462L186.678 57.512V48.488L189.462 46.88H194.094L196.878 48.488V57.512ZM189.006 48.968V57.032H194.55V48.968H189.006Z" fill="#FF455E"/>
<defs>
<clipPath id="clip0">
<rect width="74" height="67" fill="white" transform="translate(0 4)"/>
</clipPath>
</defs>
</svg>
